<?xml version="1.0" encoding="UTF-8"?>
<svg width="49px" height="49px" viewBox="0 0 49 49" version="1.1" xmlns="http://www.w3.org/2000/svg" xmlns:xlink="http://www.w3.org/1999/xlink">
    <title>logos / square c @1x</title>
    <defs>
        <path d="M47.0055096,0 C48.1070363,0 49,0.8954305 49,2 L49.0004014,13.8399734 C48.6244223,13.2048546 48.196397,12.599247 47.7163245,12.0231481 C46.2745773,10.293016 44.4221276,8.94552952 42.1589198,7.98064815 C39.895712,7.01576678 37.3223996,6.53333333 34.4389052,6.53333333 C31.1530627,6.53333333 28.1271155,7.28193696 25.3609726,8.77916667 C22.5948298,10.2763964 20.3987129,12.3808043 18.7725562,15.0924537 C17.1463995,17.8041031 16.3333333,20.9399205 16.3333333,24.5 C16.3333333,28.0600795 17.1463995,31.1958969 18.7725562,33.9075463 C20.3987129,36.6191957 22.5948298,38.7236036 25.3609726,40.2208333 C28.1271155,41.718063 31.1530627,42.4666667 34.4389052,42.4666667 C38.4623857,42.4666667 41.8822929,41.4768463 44.6987292,39.4971759 C46.4611239,38.2583904 47.8952854,36.6841469 49.0012283,34.7744247 L49,47 C49,48.1045695 48.1070363,49 47.0055096,49 L1.99449036,49 C0.89296375,49 0,48.1045695 0,47 L0,2 C0,0.8954305 0.89296375,0 1.99449036,0 L47.0055096,0 Z M34.2880254,13.3207407 C36.6015267,13.3207407 38.5461798,13.8697167 40.122043,14.9676852 C41.6979062,16.0656536 42.7708183,17.6127678 43.3408113,19.6090741 L43.3408113,19.6090741 L49,18.87 L49,30.134 L43.3408113,29.3909259 C42.7727906,31.2698024 41.788978,32.7507786 40.3893467,33.8338933 L40.122043,34.0323148 C38.5797088,35.1302833 36.7021127,35.6792593 34.4891984,35.6792593 C32.3768712,35.6792593 30.5328036,35.2051436 28.9569404,34.2568981 C27.3810772,33.3086527 26.1740511,31.9944374 25.335826,30.314213 C24.4976009,28.6339885 24.0784946,26.6959369 24.0784946,24.5 C24.0784946,22.3373349 24.4892188,20.4076011 25.3106794,18.7107407 C26.13214,17.0138804 27.3140197,15.6913473 28.8563539,14.7431019 C30.3986881,13.7948564 32.2092271,13.3207407 34.2880254,13.3207407 Z" id="path-1"></path>
    </defs>
    <g id="Page-1" stroke="none" stroke-width="1" fill="none" fill-rule="evenodd">
        <g id="Group">
            <g transform="translate(11.000000, 3.000000)" fill="#FFFFFF" id="background-C-color">
                <rect id="Rectangle" x="0" y="0" width="38" height="41"></rect>
            </g>
            <mask id="mask-2" fill="white">
                <use xlink:href="#path-1"></use>
            </mask>
            <use id="Mask" fill="#95939F" xlink:href="#path-1"></use>
            <g mask="url(#mask-2)" id="block-color">
                <g transform="translate(0.000000, -2.000000)">
                    <rect id="Rectangle" fill="#865EFC" x="0" y="0" width="51" height="51"></rect>
                </g>
            </g>
        </g>
    </g>
</svg>