<?xml version="1.0" encoding="UTF-8"?>
<!-- Generator: Adobe Illustrator 26.5.1, SVG Export Plug-In . SVG Version: 6.00 Build 0)  -->
<svg xmlns="http://www.w3.org/2000/svg" xmlns:xlink="http://www.w3.org/1999/xlink" version="1.1" id="Blk_Logo" x="0px" y="0px" viewBox="0 0 5201.5 2567" style="enable-background:new 0 0 5201.5 2567;" xml:space="preserve">
<style type="text/css">
	.st0{fill:#131626;}
</style>
<path class="st0" d="M1133.1,1658.9l241.2-582.1h-192.4l-118.9,313.5l-118.9-313.5H751.5l241.2,582.1H1133.1z"></path>
<path class="st0" d="M2425.7,1497.6h-223v-420.8h-173.4v582.1h396.4V1497.6z"></path>
<path class="st0" d="M2519,1658.9h173.4v-424.1h152v-158H2367v158h152V1658.9z"></path>
<path class="st0" d="M3017,1076.8l-239.5,582.1h183.3l30.6-75.7h194.9l30.6,75.7h183.4l-239.5-582.1H3017z M3037.7,1446.9l51.2-133  l51.2,133H3037.7z"></path>
<path class="st0" d="M3714.1,1337.9l81.8,108.9c-22.3,39.1-61.1,62.4-111.5,62.4c-85.1,0-133.8-64-133.8-141.4  c0-77.3,48.7-141.4,133.8-141.4c40.5,0,72.7,13.3,96.6,39.1l128.8-113.9c-56.2-56.5-135.4-89.8-225.5-89.8  c-179.2-3.3-313,137.2-310.5,306c-2.5,168.8,131.3,309.4,310.5,306c174.3,3.3,309.7-137.2,306.4-306c0-9.1-0.8-19.1-1.6-29.9H3714.1  z"></path>
<path class="st0" d="M4450,1238.1v-161.3h-409.7v582.1H4450v-161.3h-236.2v-62.4h209.8v-134.7h-209.8v-62.4H4450z"></path>
<path class="st0" d="M1968.9,1363.9c1.9-128-74.6-239.6-189.8-284.8l-49.4,159.3h75l-162.5,295.7v-223h-5.4v0h-89.3l34-245.4  c-139.3,31.5-235.8,154.6-233.7,298.2c-2.5,168.8,131.3,309.4,310.5,306C1837.6,1673.3,1971.4,1532.8,1968.9,1363.9z"></path>
</svg>
