<?xml version="1.0" encoding="UTF-8"?>
<svg width="200px" height="49px" viewBox="0 0 200 49" version="1.1" xmlns="http://www.w3.org/2000/svg" xmlns:xlink="http://www.w3.org/1999/xlink">
    <!-- Generator: Sketch 43.2 (39069) - http://www.bohemiancoding.com/sketch -->
    <title>bitrefill</title>
    <desc>Created with Sketch.</desc>
    <defs></defs>
    <g id="Page-1" stroke="none" stroke-width="1" fill="none" fill-rule="evenodd">
        <g id="bitrefill" fill-rule="nonzero" fill="#000000">
            <path d="M0.115940653,17.6084867 L9.18829676,10.8404511 L9.18829676,39.941555 L20.2896143,39.941555 C24.4779704,39.941555 27.3909793,37.2314423 27.3909793,33.3039526 C27.3909793,29.376463 24.4779704,26.6663502 20.2896143,26.6663502 L14.20273,26.6663502 L21.9852464,18.8838339 C24.144641,16.7244392 24.6228962,15.3621365 24.6228962,13.8694006 C24.6228962,10.8984214 22.3185757,8.79699706 18.6664452,8.79699706 L0.115940653,8.79699706 L0.115940653,0.681151337 L20.2171514,0.681151337 C28.0721307,0.681151337 33.6807597,5.42022554 33.6807597,12.2462315 C33.6807597,15.4925698 32.9996084,17.9273235 30.5648547,20.3620772 L28.9416856,21.9852464 C33.3474304,24.144641 36.4488428,28.5503858 36.4488428,34.1735075 C36.4488428,42.3618162 29.8837034,48.0429082 20.680914,48.0429082 L0.101448072,48.0429082 L0.101448072,17.6084867 L0.115940653,17.6084867 Z" id="Shape"></path>
            <path d="M41.3908132,0.695643919 L50.4631693,0.695643919 L50.4631693,10.7100178 L41.3908132,10.7100178 L41.3908132,0.695643919 Z M41.3908132,19.5070149 L50.4631693,12.7389793 L50.4631693,48.0574007 L41.3908132,48.0574007 L41.3908132,19.5070149 Z" id="Shape"></path>
            <path d="M56.9558459,36.5502909 L56.9558459,10.7100178 L66.028202,3.66662316 L66.028202,13.405638 L75.9121427,13.405638 L75.9121427,21.8693057 L66.028202,21.8693057 L66.028202,35.5358102 C66.028202,38.0430268 67.5789082,39.5937331 70.0861248,39.5937331 L75.9121427,39.5937331 L75.9121427,48.0574007 L68.4049854,48.0574007 C61.2891278,48.0574007 56.9558459,43.7241188 56.9558459,36.5502909 Z" id="Shape"></path>
            <path d="M92.4771635,13.405638 L98.5640478,13.405638 L98.5640478,21.8693057 L92.7525225,21.8693057 C90.2453059,21.8693057 88.6945997,23.4200119 88.6945997,25.9272286 L88.6945997,48.0574007 L79.6222436,48.0574007 L79.6222436,26.2750505 C79.6222436,18.014279 84.2308845,13.405638 92.4771635,13.405638 Z" id="Shape"></path>
            <path d="M99.1147659,30.7387657 C99.1147659,20.9272879 105.955264,12.7389793 116.839193,12.7389793 C127.665152,12.7389793 134.563621,20.3185995 134.563621,30.7387657 C134.563621,31.2170209 134.563621,31.6807835 134.491158,32.1590387 L114.201543,32.1590387 L124.62171,25.0576737 C123.071003,22.4200238 120.418861,20.7243918 116.839193,20.7243918 C111.013175,20.7243918 107.563941,25.2605698 107.563941,30.7387657 C107.563941,37.5068013 111.897223,40.7531396 117.172523,40.7531396 C120.288428,40.7531396 123.056511,39.4053295 124.67968,36.6952167 L133.752036,36.6952167 C131.389745,44.6081663 124.418813,48.7385521 117.172523,48.7385521 C107.708867,48.7385521 99.1147659,42.782101 99.1147659,30.7387657 Z" id="Shape"></path>
            <path d="M152.099644,0.695643919 L162.316914,0.695643919 L162.316914,9.1593116 L152.375003,9.1593116 C149.867787,9.1593116 148.317081,10.7100178 148.317081,13.2172345 L148.317081,16.2606766 L166.853093,16.2606766 L166.853093,48.0718933 L157.780736,48.0718933 L157.780736,24.7098517 L148.302588,24.7098517 L148.302588,48.0574007 L139.230232,48.0574007 L139.230232,13.5505638 C139.244724,5.2897923 143.853365,0.695643919 152.099644,0.695643919 Z" id="Shape"></path>
            <polygon id="Shape" points="174.302279 7.04339468 183.374636 2.84217094e-14 183.374636 48.0429082 174.302279 48.0429082"></polygon>
            <polygon id="Shape" points="190.80933 7.04339468 199.881686 2.84217094e-14 199.881686 48.0429082 190.80933 48.0429082"></polygon>
        </g>
    </g>
</svg>