<?xml version="1.0" encoding="UTF-8"?>
<svg width="200px" height="40px" viewBox="0 0 200 40" version="1.1" xmlns="http://www.w3.org/2000/svg" xmlns:xlink="http://www.w3.org/1999/xlink">
    <!-- Generator: Sketch 43.2 (39069) - http://www.bohemiancoding.com/sketch -->
    <title>opennode</title>
    <desc>Created with Sketch.</desc>
    <defs></defs>
    <g id="Page-1" stroke="none" stroke-width="1" fill="none" fill-rule="evenodd">
        <g id="opennode" transform="translate(0.000000, 0.840000)" fill-rule="nonzero">
            <path d="M61.0345371,19.3179621 C61.0345371,24.5411288 57.0468827,28.4856371 51.7098456,28.4856371 C46.3697222,28.4856371 42.4032099,24.5411288 42.4032099,19.3179621 C42.4032099,14.0978788 46.3697222,10.1533704 51.7098456,10.1533704 C57.0468827,10.1533704 61.0345371,14.0978788 61.0345371,19.3179621 Z M45.5004322,19.3179621 C45.5004322,23.0030079 48.1689506,25.6508204 51.7098456,25.6508204 C55.2326852,25.6508204 57.9192593,23.0030079 57.9192593,19.3179621 C57.9192593,15.6329163 55.2326852,13.0031413 51.7098456,13.0031413 C48.1689506,13.0031413 45.5004322,15.6329163 45.5004322,19.3179621 Z M81.8405093,19.3179621 C81.8405093,24.6345538 77.9675154,28.4856371 73.0349536,28.4856371 C70.2548611,28.4856371 68.198997,27.4120204 66.8255401,25.7624371 L66.8255401,35.5211871 L63.8037808,35.5211871 L63.8037808,10.5212121 L66.8255401,10.5212121 L66.8255401,12.8734871 C68.198997,11.2269871 70.2548611,10.1533704 73.0349536,10.1533704 C77.9675154,10.1533704 81.8405093,14.0042996 81.8405093,19.3179621 Z M66.6414352,19.3179621 C66.6414352,22.9308579 69.1258489,25.6508204 72.6847995,25.6508204 C76.3344907,25.6508204 78.7281635,22.8192412 78.7281635,19.3179621 C78.7281635,15.8199204 76.2800154,13.0031413 72.6847995,13.0031413 C69.1258489,13.0031413 66.6414352,15.7263413 66.6414352,19.3179621 Z M101.326775,19.2637108 C101.326775,19.6526733 101.290355,20.0598275 101.272299,20.3915942 L87.4256945,20.3915942 C87.8511574,24.040565 90.3900464,25.83784 93.4118055,25.83784 C95.4704476,25.83784 97.3418982,25.0417233 98.8454476,23.7450275 L100.45733,25.8198025 C98.2687501,27.8554192 95.8236882,28.4856525 93.2275464,28.4856525 C87.9991511,28.4856525 84.2922068,24.8004525 84.2922068,19.3179775 C84.2922068,13.91089 87.9810957,10.1533858 93.0434414,10.1533858 C97.8431327,10.1533858 101.290355,13.8746608 101.326775,19.2637108 Z M87.4618055,17.9488233 L98.2324846,17.9488233 C97.8613426,14.8366608 95.8417439,12.8372733 92.986034,12.8372733 C89.8738426,12.8372733 87.9267748,14.9482775 87.4618055,17.9488233 Z M120.288164,17.1888279 L120.288164,28.1146196 L117.245262,28.1146196 L117.245262,18.1688654 C117.245262,14.9302862 115.46733,13.0212404 112.409305,13.0212404 C109.571805,13.0212404 107.199121,14.9663612 107.199121,18.2444071 L107.199121,28.1146196 L104.177516,28.1146196 L104.177516,10.5212738 L107.18091,10.5212738 L107.18091,12.8191279 C108.627052,10.8379321 110.906065,10.1532779 112.946805,10.1532779 C117.284459,10.1532779 120.288164,12.9669737 120.288164,17.1888279 Z M139.534738,17.1888279 L139.534738,28.1146196 L136.491836,28.1146196 L136.491836,18.1688654 C136.491836,14.9302862 134.713904,13.0212404 131.655879,13.0212404 C128.818379,13.0212404 126.445695,14.9663612 126.445695,18.2444071 L126.445695,28.1146196 L123.423935,28.1146196 L123.423935,10.5212738 L126.427484,10.5212738 L126.427484,12.8191279 C127.873472,10.8379321 130.152639,10.1532779 132.193225,10.1532779 C136.531034,10.1532779 139.534738,12.9669737 139.534738,17.1888279 Z M160.607978,19.3179621 C160.607978,24.5411288 156.62017,28.4856371 151.283132,28.4856371 C145.943165,28.4856371 141.976651,24.5411288 141.976651,19.3179621 C141.976651,14.0978788 145.943165,10.1533704 151.283132,10.1533704 C156.62017,10.1533704 160.607978,14.0978788 160.607978,19.3179621 Z M145.073873,19.3179621 C145.073873,23.0030079 147.742392,25.6508204 151.283132,25.6508204 C154.805973,25.6508204 157.492701,23.0030079 157.492701,19.3179621 C157.492701,15.6329163 154.805973,13.0031413 151.283132,13.0031413 C147.742392,13.0031413 145.073873,15.6329163 145.073873,19.3179621 Z M177.740694,12.8915246 L177.740694,3.10872458 L180.780509,3.11473708 L180.780509,28.1147121 L177.740694,28.1147121 L177.740694,25.7624371 C176.35196,27.4120204 174.293318,28.4856371 171.531127,28.4856371 C166.580509,28.4856371 162.725725,24.6345538 162.725725,19.3179621 C162.725725,14.0042996 166.580509,10.1533704 171.531127,10.1533704 C174.293318,10.1533704 176.35196,11.2269871 177.740694,12.8915246 Z M165.822793,19.3179621 C165.822793,22.8192412 168.268009,25.6508204 171.884212,25.6508204 C175.443318,25.6508204 177.927731,22.9308579 177.927731,19.3179621 C177.927731,15.7263413 175.443318,13.0031413 171.884212,13.0031413 C168.213533,13.0031413 165.822793,15.8199204 165.822793,19.3179621 Z M199.932608,19.2637108 C199.932608,19.6526733 199.896187,20.0598275 199.878132,20.3915942 L186.031528,20.3915942 C186.456991,24.040565 188.99588,25.83784 192.017639,25.83784 C194.076281,25.83784 195.947885,25.0417233 197.451281,23.7450275 L199.063165,25.8198025 C196.874583,27.8554192 194.429522,28.4856525 191.833379,28.4856525 C186.604984,28.4856525 182.89804,24.8004525 182.89804,19.3179775 C182.89804,13.91089 186.586929,10.1533858 191.649275,10.1533858 C196.448966,10.1533858 199.896187,13.8746608 199.932608,19.2637108 Z M186.067639,17.9488233 L196.838472,17.9488233 C196.467176,14.8366608 194.447576,12.8372733 191.591868,12.8372733 C188.479676,12.8372733 186.532608,14.9482775 186.067639,17.9488233 Z" id="Typography" fill="#1D2229"></path>
            <g id="Symbol">
                <polygon id="Fill-18" fill="#655AE6" points="33.3364352 28.8422862 33.3359723 9.61415708 16.6679167 1.54166667e-05 16.6683796 19.2281446"></polygon>
                <polygon id="Fill-20" fill="#5A50CE" points="33.3357561 9.61420333 16.6677005 6.16666667e-05 16.6681635 19.2277283"></polygon>
                <polygon id="Fill-22" fill="#655AE6" points="33.3362038 28.8419779 16.6681481 19.2278362 33.3357407 9.61415708"></polygon>
                <polygon id="Fill-24" fill="#4896F0" points="33.3362038 28.8422862 16.6681481 19.2281446 0.000401234569 28.8415154 16.6686111 38.4558112"></polygon>
                <polygon id="Fill-27" fill="#4896F0" points="16.6685648 38.4554258 16.6681018 19.2277592 33.3361574 28.842055"></polygon>
                <polygon id="Fill-29" fill="#4086D7" points="0.000462962962 28.8412379 16.6680556 19.2278671 16.6685184 38.4553796"></polygon>
                <polygon id="Fill-31" fill="#F5D980" points="16.6676544 1.54166667e-05 6.1728395e-05 9.61338625 0.000524691358 28.8415154 16.6681173 19.2281446"></polygon>
                <polygon id="Fill-33" fill="#F2D268" points="1.54320987e-05 9.61346333 0.000478395063 28.8412842 16.668071 19.2277592"></polygon>
                <polygon id="Fill-35" fill="#FADA70" points="16.6676544 1.54166667e-05 6.1728395e-05 9.61338625 16.6681173 19.2278362"></polygon>
            </g>
        </g>
    </g>
</svg>