<?xml version="1.0" encoding="UTF-8"?>
<svg width="200px" height="57px" viewBox="0 0 200 57" version="1.1" xmlns="http://www.w3.org/2000/svg" xmlns:xlink="http://www.w3.org/1999/xlink">
    <!-- Generator: Sketch 43.2 (39069) - http://www.bohemiancoding.com/sketch -->
    <title>swan</title>
    <desc>Created with Sketch.</desc>
    <defs></defs>
    <g id="Page-1" stroke="none" stroke-width="1" fill="none" fill-rule="evenodd">
        <g id="swan" fill="#00305E">
            <path d="M77.7012517,47.4776471 C86.2609179,47.4776471 92.5307371,43.0964706 92.5307371,35.758 C92.5307371,31.2672941 90.3499305,27.9266471 84.7888734,24.2574118 C80.5908206,21.5191765 79.5549374,19.8214706 79.5549374,17.9047059 C79.5549374,15.0569412 82.2264256,13.0306471 85.3885953,13.0306471 C86.4244784,13.0306471 87.3513213,13.1949412 88.2236439,13.4687647 L88.7143255,20.2048235 L94.0573018,20.2048235 L94.8751043,12.483 C92.5852573,10.7305294 88.3326843,9.58047059 84.2981919,9.58047059 C76.3382476,9.58047059 70.6681502,13.9616471 70.6681502,20.9715294 C70.6681502,24.9145882 72.3037552,28.6933529 78.2464534,32.7459412 C82.3354659,35.5389412 83.0987483,37.4557059 83.0987483,39.3177059 C83.0987483,42.4940588 80.6998609,44.0274706 77.2105702,44.0274706 C76.1746871,44.0274706 74.9207232,43.8084118 73.6667594,43.5345882 L73.0125174,36.3056471 L67.7240612,36.3056471 L66.9607789,44.5751176 C69.7413074,46.4371176 73.5577191,47.4776471 77.7012517,47.4776471 L77.7012517,47.4776471 Z M118.092265,46.93 L122.99908,46.3823529 C128.342056,40.7415882 132.758189,34.7722353 135.484198,29.9529412 C137.228843,26.8861176 137.719525,25.1336471 137.719525,23.3811765 C137.719525,21.3548824 137.501444,20.4238824 136.738162,19.3833529 C136.08392,18.9452353 135.102557,18.5618824 134.066673,18.5618824 C131.122584,18.5618824 128.887258,20.1500588 128.887258,23.4359412 C128.887258,25.1336471 129.70506,26.9956471 130.359302,28.7481176 L131.068064,30.7196471 C129.323419,33.7317059 127.578774,36.5247059 125.616048,39.3177059 L122.835519,20.2595882 L117.056381,20.2595882 C114.439413,25.9003529 111.767925,31.5411176 109.150957,37.1271176 C108.769316,32.965 108.387675,28.7481176 108.006034,24.5312353 C107.678913,20.6977059 106.261388,18.8357059 103.208259,18.8357059 C100.37321,18.8357059 97.6472019,20.862 94.3214718,24.9693529 L95.5754356,26.6122941 C96.3387179,25.9003529 97.1565204,25.4074706 97.6472019,25.4074706 C98.2469238,25.4074706 98.6830851,25.5717647 98.8466456,26.8861176 C99.7734885,33.4031176 100.754851,39.8653529 101.681694,46.3823529 L102.335936,46.93 L107.896993,46.3823529 L115.093655,31.5958824 C115.856938,36.5247059 116.67474,41.4535294 117.438023,46.3823529 L118.092265,46.93 Z M157.610954,47.2585882 C161.863527,47.2585882 165.625419,43.2607647 167.479105,39.7010588 L165.679939,38.551 C164.098854,40.6320588 163.226532,41.7821176 162.354209,41.7821176 C161.754487,41.7821176 161.481886,41.3987647 161.481886,40.6868235 C161.481886,40.1391765 161.645447,39.5367647 161.863527,38.6605294 L166.225141,19.6024118 L165.352818,18.8357059 L161.045725,20.6429412 C159.51916,19.3833529 157.774515,18.8357059 155.920829,18.8357059 C147.470203,18.8357059 136.893291,29.2957647 136.893291,39.1534118 C136.893291,45.2322941 139.72834,47.2585882 142.835989,47.2585882 C145.998159,47.2585882 149.54197,44.9584706 152.431539,41.8368824 C152.431539,45.3965882 154.448785,47.2585882 157.610954,47.2585882 L157.610954,47.2585882 Z M149.105808,40.9058824 C147.306643,40.9058824 146.216239,39.5915294 146.216239,36.0865882 C146.216239,32.5816471 147.851845,26.5575294 150.359772,24.3669412 C151.450176,23.3811765 152.322498,23.0525882 153.303861,23.0525882 C154.176184,23.0525882 155.103027,23.2716471 155.975349,23.655 L152.97674,37.3461765 C152.8677,37.9485882 152.75866,38.551 152.649619,39.0986471 C151.613736,40.0296471 150.305252,40.9058824 149.105808,40.9058824 L149.105808,40.9058824 Z M188.951619,47.2585882 C193.967475,47.2585882 197.838407,43.5893529 199.964693,39.7558235 L198.165528,38.6057647 C196.529923,40.7963529 195.439519,41.7821176 194.676237,41.7821176 C194.185555,41.7821176 193.912955,41.3987647 193.912955,40.6868235 C193.912955,40.1391765 194.076515,39.5367647 194.294596,38.6605294 L196.911564,28.2552353 C197.347725,26.5575294 197.511286,25.0788824 197.511286,23.7097647 C197.511286,20.4238824 195.494039,18.8357059 193.095152,18.8357059 C189.605861,18.8357059 185.89849,20.8072353 182.082078,24.5312353 L183.008921,19.7119412 L181.863998,18.7261765 L169.978601,21.9572941 L169.59696,24.2026471 L172.75913,24.8050588 L168.342996,46.1085294 L169.215319,46.8204706 L177.665945,46.3823529 C178.429227,42.3845294 179.137989,38.4962353 180.010312,34.5531765 L181.427836,27.9266471 C183.390562,26.0098824 185.189728,25.1884118 186.607252,25.1884118 C187.316014,25.1884118 187.861216,25.6812941 187.861216,26.5575294 C187.861216,27.379 187.643135,28.7481176 187.206974,30.3910588 L185.298768,38.0033529 C184.917127,39.4272353 184.371925,41.5630588 184.371925,43.3155294 C184.371925,45.8347059 186.00753,47.2585882 188.951619,47.2585882 L188.951619,47.2585882 Z" id="Shape"></path>
            <g id="Group">
                <path d="M28.3727399,0 C44.0425713,0 56.7454798,12.7598846 56.7454798,28.5 C56.7454798,44.2401152 44.0425713,57 28.3727399,57 C12.7029083,57 0,44.2401152 0,28.5 C0,12.7598846 12.7029083,0 28.3727399,0 Z M28.3727399,3.35294118 C14.5464179,3.35294118 3.3379694,14.6116629 3.3379694,28.5 C3.3379694,42.388337 14.5464179,53.6470588 28.3727399,53.6470588 C42.1990618,53.6470588 53.4075104,42.388337 53.4075104,28.5 C53.4075104,14.6116629 42.1990618,3.35294118 28.3727399,3.35294118 Z" id="Shape"></path>
                <path d="M10.5668441,23.1705405 L10.7668258,23.1886385 C10.809487,23.415108 10.8589935,23.6404769 10.8935869,23.8681692 C11.3153087,26.6501242 12.8425529,28.7390974 15.0115477,30.4181752 C17.2393391,32.1424984 19.7909395,33.2621281 22.3664986,34.3388364 C24.9732284,35.4286291 27.5875371,36.5032588 30.1622403,37.6649543 C30.9839257,38.0355962 31.745714,38.5968786 32.4386826,39.1842074 C35.0517688,41.3987658 34.476516,45.3035301 31.3565076,46.7248338 C29.7268281,47.4672186 28.0026581,47.5189444 26.265653,47.3504376 C18.258928,46.5741803 10.780761,39.669307 9.84881688,30.7238846 C9.59908423,28.3265118 9.75799388,25.9675364 10.3756636,23.6394986 C10.4186914,23.477595 10.5021801,23.3265745 10.5668441,23.1705405 L10.5668441,23.1705405 Z M37.8425285,12.3434773 C38.9965791,13.0529675 40.0136011,13.9316984 40.7152487,15.1183398 C41.4678693,16.3911913 41.5300885,17.6832412 40.8281967,19.0108757 C40.7229497,19.210076 40.7152487,19.5194538 40.782235,19.7416434 C41.1810982,21.0654871 41.6174887,22.3779584 42.03481,23.6962994 C42.0904284,23.8718989 42.1094976,24.058993 42.1454356,24.2408289 C42.0939733,24.2673645 42.0426331,24.2940223 41.9912932,24.3205579 C41.8391068,24.15254 41.6753074,23.9938157 41.5369338,23.8151592 C39.1211399,20.6957011 36.3597789,17.9592356 32.8757455,16.0335113 C31.1283502,15.0677144 29.2683736,14.4460238 27.2617111,14.3138351 C26.1460429,14.2403426 25.0708356,14.3790123 24.0587033,14.8888132 C22.384162,15.7322042 21.2560256,18.1893736 23.519266,20.000518 C24.9866135,21.1746865 26.7060162,21.8671793 28.4145396,22.5794821 C31.4907866,23.8618716 34.6106723,25.0494913 37.6308117,26.452208 C39.1251739,27.1461682 40.5448484,28.1031607 41.8131922,29.1628717 C45.4490456,32.1997881 46.0070629,36.652995 43.3590167,40.5911429 C42.0857833,42.4844619 40.3866723,43.9243528 38.4352615,45.0803011 C38.3488389,45.1314159 38.2570381,45.1791064 38.16157,45.2074762 C38.1114526,45.2222725 38.0478887,45.1912122 37.8988801,45.1643102 C37.9483866,45.0218493 37.9666,44.9234108 38.0134175,44.8414809 C39.5776996,42.106116 39.078968,38.3128744 36.3530559,35.8313705 C34.5786459,34.2160025 32.4782267,33.1532344 30.2971302,32.2328048 C27.2824916,30.9606872 24.2141903,29.8063288 21.2530918,28.4214652 C19.724992,27.7068391 18.2528772,26.7491129 16.9740211,25.6473365 C13.1886704,22.3860292 13.363471,16.9527182 16.8097329,13.5122652 C18.8874158,11.4379662 21.4571074,10.3339886 24.3030574,9.82981276 C29.1252325,8.97553859 33.6558695,9.76952687 37.8425285,12.3434773 L37.8425285,12.3434773 Z" id="Shape"></path>
            </g>
        </g>
    </g>
</svg>