<?xml version="1.0" encoding="UTF-8"?>
<svg width="200px" height="75px" viewBox="0 0 200 75" version="1.1" xmlns="http://www.w3.org/2000/svg" xmlns:xlink="http://www.w3.org/1999/xlink">
    <!-- Generator: Sketch 43.2 (39069) - http://www.bohemiancoding.com/sketch -->
    <title>fulgur_ventures</title>
    <desc>Created with Sketch.</desc>
    <defs>
        <linearGradient x1="0%" y1="50.017863%" x2="100%" y2="50.017863%" id="linearGradient-1">
            <stop stop-color="#FF783C" offset="35%"></stop>
            <stop stop-color="#FF4154" offset="100%"></stop>
        </linearGradient>
    </defs>
    <g id="Page-1" stroke="none" stroke-width="1" fill="none" fill-rule="evenodd">
        <g id="fulgur_ventures" fill-rule="nonzero">
            <path d="M113.880284,23.9687264 L100.319291,23.9687264 L100.319291,19.8673585 L115.80227,19.8673585 L113.880284,23.9687264 Z M100.319291,42.8507547 L100.319291,27.0580189 L112.332057,27.0580189 L110.356596,31.1859906 L104.803972,31.1859906 L104.803972,42.9041038 L100.319291,42.8507547 Z" id="Shape" fill="#2A2424"></path>
            <path d="M121.915319,42.584434 C121.066383,42.6766981 120.207518,42.5760849 119.403121,42.2900943 C118.598723,42.0042453 117.869504,41.5403774 117.270355,40.9333019 C116.341277,39.5155189 115.918156,37.8267453 116.069078,36.1395283 L116.069078,25.62 L120.607234,25.62 L120.607234,36.1395283 C120.513191,36.4682547 120.508794,36.8162264 120.594894,37.147217 C120.680851,37.478066 120.854043,37.7800472 121.096312,38.0218868 C121.338582,38.2635849 121.641418,38.4363679 121.97305,38.5221226 C122.304823,38.6078774 122.653475,38.6036321 122.983121,38.5098113 L124.344539,38.5098113 L124.344539,25.62 L128.882553,25.62 L128.882553,42.584434 L121.915319,42.584434 Z" id="Shape" fill="#2A2424"></path>
            <polygon id="Shape" fill="#2A2424" points="131.124681 42.584434 131.124681 25.62 135.636028 25.62 135.636028 38.5098113 140.975035 38.5098113 140.975035 42.584434"></polygon>
            <path d="M151.520567,29.6946226 C150.92766,29.692217 150.341844,29.8088208 149.795745,30.0376415 C149.249645,30.2664623 148.756028,30.6026887 148.343262,31.0262264 C147.919149,31.4269811 147.58156,31.9102358 147.351773,32.4461321 C147.121986,32.9820283 147.005674,33.5593868 147.008511,34.1421226 C147.011348,34.7187736 147.134752,35.2884906 147.368794,35.8154717 C147.602837,36.3425943 147.943262,36.8155189 148.370213,37.2048113 C148.78156,37.620283 149.27234,37.949717 149.812766,38.1738679 C150.35461,38.3978774 150.934752,38.5120755 151.520567,38.5098113 L151.520567,32.0649057 L156.031206,32.0649057 L156.031206,42.7175943 L151.039716,42.7175943 C149.913475,42.7076887 148.8,42.4659906 147.771631,42.007783 C146.743262,41.5495755 145.819858,40.8846226 145.059574,40.0543868 C144.225532,39.3099057 143.556028,38.3990094 143.096454,37.3807075 C142.636879,36.3622642 142.395745,35.2590566 142.390071,34.1421226 C142.443972,31.8989151 143.361702,29.7625472 144.951773,28.1759434 C146.543262,26.5891981 148.683688,25.6740566 150.933333,25.62 L155.951773,25.62 L155.951773,29.6946226 L151.520567,29.6946226 Z" id="Shape" fill="#2A2424"></path>
            <path d="M164.066667,42.584434 C163.21844,42.6766981 162.358865,42.5760849 161.55461,42.2900943 C160.750355,42.0042453 160.021277,41.5403774 159.421277,40.9333019 C158.492199,39.5155189 158.069504,37.8267453 158.221277,36.1395283 L158.221277,25.62 L162.758865,25.62 L162.758865,36.1395283 C162.665248,36.4682547 162.660993,36.8162264 162.746099,37.147217 C162.832624,37.478066 163.005674,37.7800472 163.248227,38.0218868 C163.49078,38.2635849 163.792908,38.4363679 164.124823,38.5221226 C164.456738,38.6078774 164.805674,38.6036321 165.134752,38.5098113 L166.388652,38.5098113 L166.388652,25.62 L170.92766,25.62 L170.92766,42.584434 L164.066667,42.584434 Z" id="Shape" fill="#2A2424"></path>
            <path d="M172.848227,32.0649057 L178.748936,32.0649057 C178.900709,32.0722642 179.053901,32.0475 179.195745,31.9924528 C179.339007,31.9374057 179.468085,31.8532075 179.575887,31.7452358 C179.77305,31.499717 179.880851,31.1943396 179.880851,30.8797642 C179.880851,30.5650472 179.77305,30.2598113 179.575887,30.0141509 C179.462411,29.9067453 179.32766,29.8232547 179.18156,29.7683491 C179.034043,29.7134434 178.878014,29.6883962 178.721986,29.6946226 L172.848227,29.6946226 L172.848227,25.62 L179.602837,25.62 C180.324823,25.5943868 181.043972,25.7490566 181.69078,26.07 C182.339007,26.3908019 182.896454,26.8676887 183.313475,27.4575 C184.042553,28.4435377 184.42695,29.6412736 184.407092,30.8664623 C184.404255,31.440566 184.296454,32.0092925 184.087943,32.5441981 C183.873759,33.0629717 183.523404,33.5141038 183.07234,33.8491981 C183.544681,34.1803302 183.906383,34.6437736 184.113475,35.1808019 C184.32766,35.8246698 184.42695,36.5005189 184.407092,37.1782075 L184.407092,42.5046226 L179.896454,42.5046226 L179.896454,38.5098113 C179.988652,37.8328302 179.817021,37.1463679 179.415603,36.5923585 C178.855319,36.2285377 178.185816,36.0686321 177.520567,36.1395283 L172.848227,36.1395283 L172.848227,32.0649057 Z" id="Shape" fill="#2A2424"></path>
            <polygon id="Shape" fill="#2A2424" points="100.319007 52.1453774 104.963972 52.1453774 92.6842553 74.8623113 80.4313475 52.1453774 85.0763121 52.1453774 92.6842553 66.5265566"></polygon>
            <path d="M116.095887,61.9725 L104.403546,61.9725 L104.403546,57.8179245 L116.095887,57.8179245 L116.095887,61.9725 Z M104.403546,64.3426415 L116.095887,64.3426415 L116.095887,68.4706132 L108.941702,68.4706132 L108.941702,70.8408962 L116.095887,70.8408962 L116.095887,74.8623113 L104.403546,74.8623113 L104.403546,64.3426415 Z" id="Shape" fill="#2A2424"></path>
            <path d="M125.545532,57.8179245 C126.394043,57.7314623 127.251206,57.8349057 128.054752,58.1204717 C128.858298,58.4061792 129.587801,58.8667925 130.190355,59.4690566 C131.113759,60.8893868 131.536312,62.5761792 131.391631,64.2628302 L131.391631,74.8623113 L126.853617,74.8623113 L126.853617,64.342783 C126.94766,64.0140566 126.951915,63.6660849 126.865957,63.3352358 C126.779858,63.0042453 126.606809,62.7022642 126.364397,62.4604245 C126.122128,62.2187264 125.819433,62.0459434 125.48766,61.9601887 C125.155887,61.874434 124.807234,61.8786792 124.47773,61.9725 L123.222979,61.9725 L123.222979,74.8623113 L118.684965,74.8623113 L118.684965,57.8179245 L125.545532,57.8179245 Z" id="Shape" fill="#2A2424"></path>
            <path d="M132.886667,65.1949528 L132.886667,61.1203302 L143.564539,61.1203302 L143.564539,65.1949528 L132.886667,65.1949528 Z M138.225532,67.2989151 L138.225532,68.4707547 C138.133333,69.1477358 138.305248,69.8341981 138.706099,70.3882075 C139.265106,70.7561321 139.936028,70.9163208 140.601418,70.8408962 L143.643972,70.8408962 L143.643972,74.8623113 L139.533617,74.8623113 C138.705816,74.9398585 137.871206,74.8318868 137.090638,74.5461792 C136.310071,74.2604717 135.603404,73.8043868 135.022128,73.2111792 C134.057872,71.8246698 133.587801,70.1554245 133.687518,68.4707547 L133.687518,67.3521226 L138.225532,67.2989151 Z M138.225532,57.9510849 L138.225532,62.0257075 L133.687518,62.0257075 L133.687518,57.9510849 L138.225532,57.9510849 Z" id="Shape" fill="#2A2424"></path>
            <path d="M151.839716,74.8623113 C150.991489,74.9545755 150.131915,74.8539623 149.32766,74.5679717 C148.523404,74.2819811 147.794326,73.8181132 147.195745,73.2111792 C146.266667,71.7933962 145.842553,70.1046226 145.994326,68.4174057 L145.994326,57.8179245 L150.531915,57.8179245 L150.531915,68.4706132 C150.439716,69.1477358 150.611348,69.8341981 151.012766,70.3882075 C151.571631,70.7561321 152.242553,70.9163208 152.907801,70.8408962 L154.163121,70.8408962 L154.163121,57.8179245 L158.700709,57.8179245 L158.700709,74.8623113 L151.839716,74.8623113 Z" id="Shape" fill="#2A2424"></path>
            <path d="M160.622695,64.342783 L166.521986,64.342783 C166.675177,64.3516981 166.828369,64.3279245 166.971631,64.2727358 C167.113475,64.2176887 167.242553,64.1325 167.350355,64.0231132 C167.568794,63.7839623 167.685106,63.4679717 167.670922,63.1443396 C167.679433,62.8340094 167.575887,62.5311792 167.377305,62.2920283 C167.265248,62.1820755 167.130496,62.0967453 166.984397,62.0416981 C166.836879,61.9866509 166.679433,61.9630189 166.521986,61.9725 L160.622695,61.9725 L160.622695,57.8179245 L167.377305,57.8179245 C168.099291,57.7924528 168.817021,57.9471226 169.465248,58.2679245 C170.113475,58.5887264 170.670922,59.0656132 171.087943,59.655566 C171.834043,60.6632547 172.21844,61.8918396 172.18156,63.1443396 C172.180142,63.7160377 172.080851,64.2833491 171.887943,64.8220755 C171.67234,65.3762264 171.313475,65.8634434 170.846809,66.2336321 C171.319149,66.5647642 171.680851,67.0282075 171.887943,67.5652358 C172.100709,68.2089623 172.2,68.8848113 172.18156,69.5626415 L172.18156,74.8889151 L167.670922,74.8889151 L167.670922,70.7876887 C167.763121,70.1107075 167.591489,69.4241038 167.190071,68.8700943 C166.631206,68.5021698 165.960284,68.3419811 165.295035,68.4174057 L160.622695,68.4174057 L160.622695,64.342783 Z" id="Shape" fill="#2A2424"></path>
            <path d="M186.143262,61.9725 L174.451064,61.9725 L174.451064,57.8179245 L186.143262,57.8179245 L186.143262,61.9725 Z M174.451064,64.3426415 L186.143262,64.3426415 L186.143262,68.4706132 L178.988652,68.4706132 L178.988652,70.8408962 L186.143262,70.8408962 L186.143262,74.8623113 L174.451064,74.8623113 L174.451064,64.3426415 Z" id="Shape" fill="#2A2424"></path>
            <path d="M194.097872,57.8179245 L194.097872,60.4811321 C194.175887,61.2953774 194.534752,62.0576887 195.112057,62.6383019 L196.95461,64.6623113 L198.18156,65.9673113 C198.97305,66.9185377 199.407092,68.1141509 199.409929,69.3495283 C199.465248,70.1013679 199.368794,70.8566038 199.126241,71.5702358 C198.883688,72.2840094 198.497872,72.9417453 197.995745,73.5041038 C197.578723,73.9242453 197.078014,74.2526887 196.526241,74.4683491 C195.974468,74.6838679 195.384397,74.7817925 194.791489,74.7558962 L188.038298,74.7558962 L188.038298,70.7876887 L193.937589,70.7876887 C194.07234,70.7886792 194.205674,70.7578302 194.326241,70.6976887 C194.446809,70.6375472 194.551773,70.5496698 194.631206,70.4414151 C194.839716,70.1561321 194.943262,69.8083019 194.924823,69.4560849 C194.87234,69.0566038 194.695035,68.6838679 194.41844,68.3908019 L192.469504,66.42 C191.758865,65.670566 191.140426,64.8390566 190.62695,63.9433019 C189.980142,62.9582547 189.611348,61.8174057 189.560284,60.6408962 L189.560284,57.8179245 L194.097872,57.8179245 Z" id="Shape" fill="#2A2424"></path>
            <path d="M65.3757447,19.4678774 L80.1113475,19.4678774 L46.0486525,74.8623113 L23.2512057,37.8174057 L37.9868085,37.8174057 L45.9953191,50.9201887 L65.3757447,19.4678774 Z M56.8868085,19.4678774 L11.959305,19.4678774 L18.8733333,30.7065566 L49.972766,30.7065566 L56.8868085,19.4678774 Z M68.1253901,0 L0,0 L4.48473759,7.21725 L8.06185816,13.0230142 L60.0634043,13.0230142 L68.1253901,0 Z" id="Shape" fill="url(#linearGradient-1)"></path>
        </g>
    </g>
</svg>