<?xml version="1.0" encoding="UTF-8"?>
<svg width="200px" height="56px" viewBox="0 0 200 56" version="1.1" xmlns="http://www.w3.org/2000/svg" xmlns:xlink="http://www.w3.org/1999/xlink">
    <!-- Generator: Sketch 43.2 (39069) - http://www.bohemiancoding.com/sketch -->
    <title>nydig</title>
    <desc>Created with Sketch.</desc>
    <defs></defs>
    <g id="Page-1" stroke="none" stroke-width="1" fill="none" fill-rule="evenodd">
        <g id="nydig" fill-rule="nonzero">
            <g id="Group" fill="#04D1B8">
                <polygon id="Shape" points="37.5838077 6.15495495 37.5838077 0.0378378378 31.3345984 0.0378378378 31.3345984 12.3855856 54.2188488 12.3855856 54.2188488 6.15495495"></polygon>
                <path d="M25.085389,12.3603604 L25.085389,0.0378378378 L18.8361796,0.0378378378 L18.8361796,6.12972973 L9.50031626,6.12972973 C4.31372549,6.12972973 0.113851992,10.3171171 0.113851992,15.4882883 C0.101201771,20.6594595 4.31372549,24.8720721 9.50031626,24.8720721 L47.9696395,24.8720721 L47.9696395,31.0900901 L9.50031626,31.0900901 C4.31372549,31.0900901 0.101201771,35.2900901 0.113851992,40.4738739 C0.113851992,45.645045 4.31372549,49.8324324 9.50031626,49.8324324 L18.8361796,49.8324324 L18.8361796,55.9243243 L25.085389,55.9243243 L25.085389,43.6018018 C25.085389,43.6018018 9.50031626,43.6144144 9.3485136,43.6018018 C5.31309298,43.2612613 5.40164453,37.4846847 9.50031626,37.3207207 L54.2188488,37.3207207 L54.2188488,18.6414414 L9.51296648,18.6414414 C5.40164453,18.4774775 5.31309298,12.7135135 9.36116382,12.372973 C9.50031626,12.3603604 25.085389,12.3603604 25.085389,12.3603604 Z" id="Shape"></path>
                <polygon id="Shape" points="31.3345984 55.9243243 37.5838077 55.9243243 37.5838077 49.8072072 54.2188488 49.8072072 54.2188488 43.5765766 31.3345984 43.5765766"></polygon>
            </g>
            <g id="Group" transform="translate(66.793169, 11.981982)" fill="#001489">
                <polygon id="Shape" points="0.0506008855 31.6828829 0.0506008855 0.554954955 7.85578748 0.554954955 20.6578115 24.3423423 20.1265022 25.0108108 20.1265022 0.554954955 26.1480076 0.554954955 26.1480076 31.6828829 18.342821 31.6828829 5.6799494 8.02162162 6.08475648 7.44144144 6.08475648 31.6828829"></polygon>
                <polygon id="Shape" points="40.974067 31.6828829 40.974067 19.2342342 29.373814 0.554954955 36.1922834 0.554954955 44.1745731 13.6342342 52.0303605 0.554954955 58.6337761 0.554954955 46.9955724 19.2342342 46.9955724 31.6828829"></polygon>
                <path d="M61.7963314,31.6828829 L61.7963314,0.554954955 L72.4984187,0.554954955 C75.6483238,0.554954955 78.4187223,1.14774775 80.7969639,2.33333333 C83.1752056,3.51891892 85.0221379,5.27207207 86.3504111,7.60540541 C87.6786844,9.93873874 88.3364959,12.7765766 88.3364959,16.1189189 C88.3364959,19.4738739 87.6913346,22.3117117 86.4136622,24.6324324 C85.1359899,26.9657658 83.314358,28.7189189 80.974067,29.9045045 C78.6211259,31.0900901 75.8760278,31.6828829 72.7261227,31.6828829 L61.7963314,31.6828829 L61.7963314,31.6828829 Z M72.055661,26.3477477 C75.2941176,26.3477477 77.8115117,25.5657658 79.6204934,23.9891892 C81.4168248,22.4126126 82.3149905,19.7891892 82.3149905,16.1189189 C82.3149905,12.4486486 81.4168248,9.81261261 79.6204934,8.24864865 C77.8241619,6.67207207 75.3067679,5.89009009 72.055661,5.89009009 L67.8178368,5.89009009 L67.8178368,26.3477477 L72.055661,26.3477477 L72.055661,26.3477477 Z" id="Shape"></path>
                <polygon id="Shape" points="93.2194813 31.6828829 93.2194813 0.554954955 99.2409867 0.554954955 99.2409867 31.6828829 93.2194813 31.6828829"></polygon>
                <path d="M119.089184,32.1243243 C116.116382,32.1243243 113.497786,31.4306306 111.233397,30.0306306 C108.969007,28.6432432 107.223276,26.7261261 105.996205,24.2918919 C104.756483,21.8576577 104.149273,19.1333333 104.149273,16.1063063 C104.149273,13.0792793 104.781784,10.354955 106.046806,7.92072072 C107.311828,5.48648649 109.108159,3.58198198 111.44845,2.18198198 C113.788741,0.794594595 116.483238,0.0882882883 119.544592,0.0882882883 C122.163188,0.0882882883 124.452878,0.567567568 126.413662,1.51351351 C128.374447,2.45945946 129.917774,3.77117117 131.030993,5.44864865 C132.144213,7.12612613 132.776724,9.04324324 132.928526,11.2126126 L126.907021,11.2126126 C126.666667,9.45945946 125.958254,8.05945946 124.769133,7.01261261 C123.580013,5.96576577 121.910183,5.43603604 119.772296,5.43603604 L119.329538,5.43603604 C117.432005,5.43603604 115.787476,5.87747748 114.421252,6.74774775 C113.055028,7.61801802 112.00506,8.85405405 111.271347,10.4558559 C110.537634,12.0576577 110.183428,13.9369369 110.183428,16.1063063 C110.183428,18.2756757 110.550285,20.154955 111.271347,21.7567568 C112.00506,23.3585586 113.042378,24.5945946 114.421252,25.4648649 C115.787476,26.3351351 117.419355,26.7765766 119.329538,26.7765766 L119.772296,26.7765766 C121.049968,26.7765766 122.251739,26.5495495 123.390259,26.1081081 C124.516129,25.6666667 125.490196,25.0108108 126.31246,24.1531532 C127.134725,23.2954955 127.703985,22.2738739 128.032891,21.0882883 L128.121442,20.772973 L119.557242,20.772973 L119.557242,15.4504505 L133.15623,15.4504505 L133.15623,31.6828829 L128.02024,31.6828829 L128.02024,28.6558559 C127.362429,29.3369369 126.616066,29.9423423 125.768501,30.4594595 C124.920936,30.9765766 123.934219,31.3927928 122.820999,31.6828829 C121.69513,31.9855856 120.455408,32.1243243 119.089184,32.1243243 Z" id="Shape"></path>
            </g>
        </g>
    </g>
</svg>