<?xml version="1.0" standalone="no"?>
<!DOCTYPE svg PUBLIC "-//W3C//DTD SVG 20010904//EN"
 "http://www.w3.org/TR/2001/REC-SVG-20010904/DTD/svg10.dtd">
<svg version="1.0" xmlns="http://www.w3.org/2000/svg"
 width="1200.000000pt" height="600.000000pt" viewBox="0 0 1200.000000 600.000000"
 preserveAspectRatio="xMidYMid meet">
<metadata>
Created by potrace 1.16, written by Peter Selinger 2001-2019
</metadata>
<g transform="translate(0.000000,600.000000) scale(0.100000,-0.100000)"
fill="#000000" stroke="none">
<path d="M0 3000 l0 -3000 6000 0 6000 0 0 3000 0 3000 -6000 0 -6000 0 0
-3000z m2820 778 c-21 -46 -83 -177 -138 -293 l-98 -210 -40 0 c-21 0 -38 5
-37 10 1 6 31 72 67 148 36 76 62 137 58 135 -5 -2 -169 -140 -364 -308 l-356
-305 254 -3 c140 -1 254 -5 254 -9 0 -4 -5 -22 -12 -40 l-12 -33 -343 0 c-189
0 -343 2 -343 5 0 5 1140 985 1146 985 1 0 -15 -37 -36 -82z m888 -760 l2
-258 140 0 140 0 0 95 0 95 40 0 40 0 0 -130 0 -130 -220 0 -220 0 0 288 c0
159 3 292 7 296 4 4 21 6 38 4 l30 -3 3 -257z m962 222 l0 -40 -75 0 -75 0 0
-220 0 -220 75 0 75 0 0 -35 0 -35 -190 0 -190 0 0 35 0 35 80 0 80 0 0 220 0
219 -77 3 c-73 3 -78 5 -81 26 -8 52 -6 52 193 52 l185 0 0 -40z m648 3 l-3
-38 -148 -5 c-117 -4 -150 -8 -157 -20 -17 -27 -22 -95 -18 -239 4 -183 -3
-175 168 -179 l130 -4 0 96 0 96 35 0 35 0 0 -130 0 -130 -160 0 c-177 0 -225
11 -257 58 -15 23 -18 54 -21 218 -4 210 3 247 52 280 41 26 80 32 219 33
l128 1 -3 -37z m392 -93 l0 -130 160 0 160 0 0 130 0 130 35 0 35 0 0 -295 0
-295 -35 0 -35 0 0 130 0 130 -160 0 -160 0 0 -130 0 -130 -35 0 -35 0 0 295
0 295 35 0 35 0 0 -130z m1105 90 l0 -35 -102 -3 -103 -3 0 -254 0 -255 -35 0
-35 0 0 255 0 254 -102 3 c-99 3 -103 4 -106 26 -8 53 -11 53 245 50 l238 -3
0 -35z m603 3 l-3 -38 -139 -3 c-85 -1 -145 -7 -153 -14 -10 -8 -13 -31 -11
-77 l3 -66 125 -26 c134 -27 161 -39 182 -78 21 -38 17 -160 -6 -194 -34 -51
-60 -57 -241 -57 l-165 0 0 35 0 35 159 0 c189 0 191 1 191 89 0 35 -5 62 -12
68 -7 6 -65 20 -128 32 -63 13 -126 29 -140 36 -36 18 -50 55 -50 126 0 140
43 168 253 169 l138 0 -3 -37z m634 14 c59 -29 72 -58 76 -167 4 -106 -10
-146 -61 -184 -25 -18 -46 -21 -158 -25 l-129 -3 0 -94 0 -94 -40 0 -40 0 0
296 0 296 158 -4 c127 -2 164 -7 194 -21z m623 11 c29 -13 54 -57 110 -191 35
-85 35 -87 35 -236 l0 -151 -35 0 -35 0 0 80 0 80 -160 0 -160 0 0 -80 0 -80
-41 0 -41 0 5 158 c4 157 4 157 45 259 52 130 60 142 97 159 38 17 145 18 180
2z m738 -2 c18 -7 43 -26 57 -41 24 -25 25 -33 25 -141 0 -109 1 -114 23 -126
41 -21 52 -58 52 -168 l0 -100 -35 0 -35 0 0 92 c0 130 4 128 -182 128 l-148
0 0 -110 0 -110 -35 0 -35 0 0 295 0 295 140 0 c97 0 151 -4 173 -14z m497
-116 l0 -130 84 0 83 0 56 128 c56 126 56 127 91 130 25 2 36 -1 36 -10 0 -8
-23 -65 -50 -128 -53 -119 -53 -130 -3 -130 13 0 37 -13 55 -29 l33 -29 3
-131 4 -131 -36 0 -36 0 0 109 c0 86 -3 113 -16 125 -13 13 -42 16 -160 16
l-144 0 0 -125 0 -125 -35 0 -35 0 0 295 0 295 35 0 35 0 0 -130z m-6792 -19
c-4 -11 -1139 -984 -1143 -979 -1 2 59 132 133 291 l135 287 39 0 c21 0 38 -4
38 -9 0 -4 -29 -70 -65 -146 -36 -76 -65 -139 -63 -140 2 -2 166 137 366 309
l363 311 -260 3 -260 2 11 28 c24 54 7 52 370 52 189 0 338 -4 336 -9z"/>
<path d="M7770 3074 l0 -126 125 3 c158 5 160 6 160 123 0 123 -4 126 -162
126 l-123 0 0 -126z"/>
<path d="M8512 3183 c-28 -52 -82 -201 -82 -225 l0 -28 160 0 c191 0 184 -11
112 155 l-48 110 -66 3 c-56 2 -68 0 -76 -15z"/>
<path d="M9170 3089 l0 -111 115 3 c69 3 119 9 126 16 6 6 14 43 17 82 4 55 1
76 -12 96 -16 24 -20 25 -131 25 l-115 0 0 -111z"/>
</g>
</svg>
